<mxfile host="Electron" agent="Mozilla/5.0 (Macintosh; Intel Mac OS X 10_15_7) AppleWebKit/537.36 (KHTML, like Gecko) draw.io/26.0.4 Chrome/128.0.6613.186 Electron/32.2.5 Safari/537.36" version="26.0.4">
  <diagram name="Vehicles and Formations" id="v-HXxS2JqQLrvBMkdDXK">
    <mxGraphModel dx="1000" dy="813" grid="1" gridSize="10" guides="1" tooltips="1" connect="1" arrows="1" fold="1" page="1" pageScale="1" pageWidth="1169" pageHeight="827" math="0" shadow="0">
      <root>
        <mxCell id="0" />
        <mxCell id="1" parent="0" />
        <mxCell id="QkP3R4wny_Kz9jWWcXJ1-10" value="Formation:T" style="rounded=1;whiteSpace=wrap;html=1;align=center;verticalAlign=bottom;" vertex="1" parent="1">
          <mxGeometry x="10" y="210" width="1080" height="190" as="geometry" />
        </mxCell>
        <mxCell id="QkP3R4wny_Kz9jWWcXJ1-11" value="" style="ellipse;whiteSpace=wrap;html=1;aspect=fixed;" vertex="1" parent="1">
          <mxGeometry y="260" width="20" height="20" as="geometry" />
        </mxCell>
        <mxCell id="QkP3R4wny_Kz9jWWcXJ1-24" value="" style="ellipse;whiteSpace=wrap;html=1;aspect=fixed;strokeColor=light-dark(#000000, #959595);fillColor=light-dark(#3b3535, #ededed);" vertex="1" parent="1">
          <mxGeometry x="1080" y="260" width="20" height="20" as="geometry" />
        </mxCell>
        <mxCell id="QkP3R4wny_Kz9jWWcXJ1-28" value="Each vehicle has two extremities.&lt;div&gt;Formations include a sequence vehicles and/or other formations (first rolling stock, next, next...).&lt;br&gt;&lt;div&gt;Each formation has two extremities.&lt;/div&gt;&lt;div&gt;Vehicles and formations have an intrinsic orientation (usually &quot;extremity 1&quot; &quot;extremity 2&quot;, &lt;font style=&quot;color: light-dark(rgb(138, 36, 36), rgb(237, 237, 237));&quot;&gt;here shown as white and black circles&lt;/font&gt;).&lt;/div&gt;&lt;div&gt;The orientations of vehicles and formations may vary, no matter if they are coupled or included.&lt;/div&gt;&lt;div&gt;Vehicles and formations are coupled at their extremities. The couplers, as devices, are out of scope here, but the diagram shows which extremities &quot;coincide&quot;. Coincidence is shown here by short horizontal links.&lt;/div&gt;&lt;div&gt;&lt;br&gt;&lt;/div&gt;&lt;/div&gt;" style="text;html=1;align=left;verticalAlign=top;whiteSpace=wrap;rounded=0;" vertex="1" parent="1">
          <mxGeometry x="70" y="420" width="760" height="120" as="geometry" />
        </mxCell>
        <mxCell id="QkP3R4wny_Kz9jWWcXJ1-34" value="" style="endArrow=none;html=1;rounded=0;" edge="1" parent="1" source="QkP3R4wny_Kz9jWWcXJ1-12" target="QkP3R4wny_Kz9jWWcXJ1-20">
          <mxGeometry width="50" height="50" relative="1" as="geometry">
            <mxPoint x="470" y="690" as="sourcePoint" />
            <mxPoint x="520" y="640" as="targetPoint" />
          </mxGeometry>
        </mxCell>
        <mxCell id="QkP3R4wny_Kz9jWWcXJ1-35" value="" style="endArrow=none;html=1;rounded=0;exitX=1;exitY=0.5;exitDx=0;exitDy=0;" edge="1" parent="1" source="QkP3R4wny_Kz9jWWcXJ1-18">
          <mxGeometry width="50" height="50" relative="1" as="geometry">
            <mxPoint x="350" y="269.68" as="sourcePoint" />
            <mxPoint x="390" y="269.68" as="targetPoint" />
          </mxGeometry>
        </mxCell>
        <mxCell id="QkP3R4wny_Kz9jWWcXJ1-47" value="" style="group" vertex="1" connectable="0" parent="1">
          <mxGeometry x="40" y="240" width="140" height="90" as="geometry" />
        </mxCell>
        <mxCell id="QkP3R4wny_Kz9jWWcXJ1-29" value="first rolling stock of T" style="text;html=1;align=center;verticalAlign=middle;whiteSpace=wrap;rounded=0;" vertex="1" parent="QkP3R4wny_Kz9jWWcXJ1-47">
          <mxGeometry x="20" y="60" width="100" height="30" as="geometry" />
        </mxCell>
        <mxCell id="QkP3R4wny_Kz9jWWcXJ1-37" value="" style="group" vertex="1" connectable="0" parent="QkP3R4wny_Kz9jWWcXJ1-47">
          <mxGeometry width="140" height="60" as="geometry" />
        </mxCell>
        <mxCell id="QkP3R4wny_Kz9jWWcXJ1-1" value="Vehicle:A" style="rounded=0;whiteSpace=wrap;html=1;" vertex="1" parent="QkP3R4wny_Kz9jWWcXJ1-37">
          <mxGeometry x="10" width="120" height="60" as="geometry" />
        </mxCell>
        <mxCell id="QkP3R4wny_Kz9jWWcXJ1-12" value="" style="ellipse;whiteSpace=wrap;html=1;aspect=fixed;strokeColor=light-dark(#000000, #959595);fillColor=light-dark(#3b3535, #ededed);" vertex="1" parent="QkP3R4wny_Kz9jWWcXJ1-37">
          <mxGeometry x="120" y="20" width="20" height="20" as="geometry" />
        </mxCell>
        <mxCell id="QkP3R4wny_Kz9jWWcXJ1-19" value="" style="ellipse;whiteSpace=wrap;html=1;aspect=fixed;" vertex="1" parent="QkP3R4wny_Kz9jWWcXJ1-37">
          <mxGeometry y="20" width="20" height="20" as="geometry" />
        </mxCell>
        <mxCell id="QkP3R4wny_Kz9jWWcXJ1-51" value="" style="endArrow=none;html=1;rounded=0;exitX=1;exitY=0.5;exitDx=0;exitDy=0;entryX=0;entryY=0.5;entryDx=0;entryDy=0;" edge="1" parent="1" source="QkP3R4wny_Kz9jWWcXJ1-11" target="QkP3R4wny_Kz9jWWcXJ1-19">
          <mxGeometry width="50" height="50" relative="1" as="geometry">
            <mxPoint x="470" y="690" as="sourcePoint" />
            <mxPoint x="520" y="640" as="targetPoint" />
          </mxGeometry>
        </mxCell>
        <mxCell id="QkP3R4wny_Kz9jWWcXJ1-52" value="" style="endArrow=none;html=1;rounded=0;exitX=0;exitY=0.5;exitDx=0;exitDy=0;entryX=1;entryY=0.5;entryDx=0;entryDy=0;" edge="1" parent="1" source="QkP3R4wny_Kz9jWWcXJ1-22" target="QkP3R4wny_Kz9jWWcXJ1-25">
          <mxGeometry width="50" height="50" relative="1" as="geometry">
            <mxPoint x="530" y="280" as="sourcePoint" />
            <mxPoint x="550" y="280" as="targetPoint" />
          </mxGeometry>
        </mxCell>
        <mxCell id="QkP3R4wny_Kz9jWWcXJ1-55" value="" style="endArrow=none;html=1;rounded=0;exitX=1;exitY=0.5;exitDx=0;exitDy=0;entryX=0;entryY=0.5;entryDx=0;entryDy=0;" edge="1" parent="1" source="QkP3R4wny_Kz9jWWcXJ1-16" target="QkP3R4wny_Kz9jWWcXJ1-13">
          <mxGeometry width="50" height="50" relative="1" as="geometry">
            <mxPoint x="900" y="280" as="sourcePoint" />
            <mxPoint x="910" y="280" as="targetPoint" />
          </mxGeometry>
        </mxCell>
        <mxCell id="QkP3R4wny_Kz9jWWcXJ1-56" value="" style="endArrow=none;html=1;rounded=0;exitX=0;exitY=0.5;exitDx=0;exitDy=0;entryX=1;entryY=0.5;entryDx=0;entryDy=0;" edge="1" parent="1" source="QkP3R4wny_Kz9jWWcXJ1-24" target="QkP3R4wny_Kz9jWWcXJ1-26">
          <mxGeometry width="50" height="50" relative="1" as="geometry">
            <mxPoint x="930" y="280" as="sourcePoint" />
            <mxPoint x="940" y="280" as="targetPoint" />
          </mxGeometry>
        </mxCell>
        <mxCell id="QkP3R4wny_Kz9jWWcXJ1-57" value="" style="group" vertex="1" connectable="0" parent="1">
          <mxGeometry x="200" y="240" width="140" height="90" as="geometry" />
        </mxCell>
        <mxCell id="QkP3R4wny_Kz9jWWcXJ1-30" value="next in T" style="text;html=1;align=center;verticalAlign=middle;whiteSpace=wrap;rounded=0;" vertex="1" parent="QkP3R4wny_Kz9jWWcXJ1-57">
          <mxGeometry x="20" y="60" width="100" height="30" as="geometry" />
        </mxCell>
        <mxCell id="QkP3R4wny_Kz9jWWcXJ1-38" value="" style="group" vertex="1" connectable="0" parent="QkP3R4wny_Kz9jWWcXJ1-57">
          <mxGeometry width="140" height="60" as="geometry" />
        </mxCell>
        <mxCell id="QkP3R4wny_Kz9jWWcXJ1-2" value="Vehicle:B" style="rounded=0;whiteSpace=wrap;html=1;" vertex="1" parent="QkP3R4wny_Kz9jWWcXJ1-38">
          <mxGeometry x="10" width="120" height="60" as="geometry" />
        </mxCell>
        <mxCell id="QkP3R4wny_Kz9jWWcXJ1-18" value="" style="ellipse;whiteSpace=wrap;html=1;aspect=fixed;" vertex="1" parent="QkP3R4wny_Kz9jWWcXJ1-38">
          <mxGeometry x="120" y="20" width="20" height="20" as="geometry" />
        </mxCell>
        <mxCell id="QkP3R4wny_Kz9jWWcXJ1-20" value="" style="ellipse;whiteSpace=wrap;html=1;aspect=fixed;strokeColor=light-dark(#000000, #959595);fillColor=light-dark(#3b3535, #ededed);" vertex="1" parent="QkP3R4wny_Kz9jWWcXJ1-38">
          <mxGeometry y="20" width="20" height="20" as="geometry" />
        </mxCell>
        <mxCell id="QkP3R4wny_Kz9jWWcXJ1-58" value="" style="group" vertex="1" connectable="0" parent="1">
          <mxGeometry x="360" y="240" width="140" height="90" as="geometry" />
        </mxCell>
        <mxCell id="QkP3R4wny_Kz9jWWcXJ1-42" value="" style="group" vertex="1" connectable="0" parent="QkP3R4wny_Kz9jWWcXJ1-58">
          <mxGeometry width="140" height="60" as="geometry" />
        </mxCell>
        <mxCell id="QkP3R4wny_Kz9jWWcXJ1-5" value="Vehicle:C" style="rounded=0;whiteSpace=wrap;html=1;" vertex="1" parent="QkP3R4wny_Kz9jWWcXJ1-42">
          <mxGeometry x="10" width="120" height="60" as="geometry" />
        </mxCell>
        <mxCell id="QkP3R4wny_Kz9jWWcXJ1-17" value="" style="ellipse;whiteSpace=wrap;html=1;aspect=fixed;" vertex="1" parent="QkP3R4wny_Kz9jWWcXJ1-42">
          <mxGeometry x="120" y="20" width="20" height="20" as="geometry" />
        </mxCell>
        <mxCell id="QkP3R4wny_Kz9jWWcXJ1-21" value="" style="ellipse;whiteSpace=wrap;html=1;aspect=fixed;strokeColor=light-dark(#000000, #959595);fillColor=light-dark(#3b3535, #ededed);" vertex="1" parent="QkP3R4wny_Kz9jWWcXJ1-42">
          <mxGeometry y="20" width="20" height="20" as="geometry" />
        </mxCell>
        <mxCell id="QkP3R4wny_Kz9jWWcXJ1-36" value="" style="endArrow=none;html=1;rounded=0;exitX=1;exitY=0.5;exitDx=0;exitDy=0;" edge="1" parent="1" source="QkP3R4wny_Kz9jWWcXJ1-17">
          <mxGeometry width="50" height="50" relative="1" as="geometry">
            <mxPoint x="530" y="270" as="sourcePoint" />
            <mxPoint x="540" y="270" as="targetPoint" />
          </mxGeometry>
        </mxCell>
        <mxCell id="QkP3R4wny_Kz9jWWcXJ1-62" value="" style="endArrow=none;html=1;rounded=0;exitX=0;exitY=0.5;exitDx=0;exitDy=0;entryX=1;entryY=0.5;entryDx=0;entryDy=0;" edge="1" parent="1" source="QkP3R4wny_Kz9jWWcXJ1-22" target="QkP3R4wny_Kz9jWWcXJ1-25">
          <mxGeometry width="50" height="50" relative="1" as="geometry">
            <mxPoint x="737" y="280" as="sourcePoint" />
            <mxPoint x="715" y="280" as="targetPoint" />
          </mxGeometry>
        </mxCell>
        <mxCell id="QkP3R4wny_Kz9jWWcXJ1-31" value="next in T" style="text;html=1;align=center;verticalAlign=middle;whiteSpace=wrap;rounded=0;" vertex="1" parent="1">
          <mxGeometry x="380" y="300" width="100" height="30" as="geometry" />
        </mxCell>
        <mxCell id="QkP3R4wny_Kz9jWWcXJ1-64" value="" style="group" vertex="1" connectable="0" parent="1">
          <mxGeometry x="540" y="230" width="370" height="150" as="geometry" />
        </mxCell>
        <mxCell id="QkP3R4wny_Kz9jWWcXJ1-70" value="" style="group" vertex="1" connectable="0" parent="QkP3R4wny_Kz9jWWcXJ1-64">
          <mxGeometry width="370" height="150" as="geometry" />
        </mxCell>
        <mxCell id="QkP3R4wny_Kz9jWWcXJ1-59" value="" style="group" vertex="1" connectable="0" parent="QkP3R4wny_Kz9jWWcXJ1-70">
          <mxGeometry width="370" height="120" as="geometry" />
        </mxCell>
        <mxCell id="QkP3R4wny_Kz9jWWcXJ1-7" value="Formation:X" style="rounded=1;whiteSpace=wrap;html=1;align=center;verticalAlign=bottom;" vertex="1" parent="QkP3R4wny_Kz9jWWcXJ1-59">
          <mxGeometry width="350" height="120" as="geometry" />
        </mxCell>
        <mxCell id="QkP3R4wny_Kz9jWWcXJ1-50" value="" style="group" vertex="1" connectable="0" parent="QkP3R4wny_Kz9jWWcXJ1-59">
          <mxGeometry x="187" y="10" width="140" height="90" as="geometry" />
        </mxCell>
        <mxCell id="QkP3R4wny_Kz9jWWcXJ1-32" value="first rolling stock of A" style="text;html=1;align=center;verticalAlign=middle;whiteSpace=wrap;rounded=0;" vertex="1" parent="QkP3R4wny_Kz9jWWcXJ1-50">
          <mxGeometry x="20" y="60" width="100" height="30" as="geometry" />
        </mxCell>
        <mxCell id="QkP3R4wny_Kz9jWWcXJ1-49" value="" style="group" vertex="1" connectable="0" parent="QkP3R4wny_Kz9jWWcXJ1-50">
          <mxGeometry width="140" height="60" as="geometry" />
        </mxCell>
        <mxCell id="QkP3R4wny_Kz9jWWcXJ1-4" value="Vehicle:E" style="rounded=0;whiteSpace=wrap;html=1;" vertex="1" parent="QkP3R4wny_Kz9jWWcXJ1-49">
          <mxGeometry x="10" width="120" height="60" as="geometry" />
        </mxCell>
        <mxCell id="QkP3R4wny_Kz9jWWcXJ1-14" value="" style="ellipse;whiteSpace=wrap;html=1;aspect=fixed;" vertex="1" parent="QkP3R4wny_Kz9jWWcXJ1-49">
          <mxGeometry x="120" y="20" width="20" height="20" as="geometry" />
        </mxCell>
        <mxCell id="QkP3R4wny_Kz9jWWcXJ1-23" value="" style="ellipse;whiteSpace=wrap;html=1;aspect=fixed;strokeColor=light-dark(#000000, #959595);fillColor=light-dark(#3b3535, #ededed);" vertex="1" parent="QkP3R4wny_Kz9jWWcXJ1-49">
          <mxGeometry y="20" width="20" height="20" as="geometry" />
        </mxCell>
        <mxCell id="QkP3R4wny_Kz9jWWcXJ1-53" value="" style="endArrow=none;html=1;rounded=0;exitX=0;exitY=0.5;exitDx=0;exitDy=0;entryX=1;entryY=0.5;entryDx=0;entryDy=0;" edge="1" parent="QkP3R4wny_Kz9jWWcXJ1-59" source="QkP3R4wny_Kz9jWWcXJ1-23" target="QkP3R4wny_Kz9jWWcXJ1-15">
          <mxGeometry width="50" height="50" relative="1" as="geometry">
            <mxPoint y="60" as="sourcePoint" />
            <mxPoint x="20" y="60" as="targetPoint" />
          </mxGeometry>
        </mxCell>
        <mxCell id="QkP3R4wny_Kz9jWWcXJ1-16" value="" style="ellipse;whiteSpace=wrap;html=1;aspect=fixed;" vertex="1" parent="QkP3R4wny_Kz9jWWcXJ1-59">
          <mxGeometry x="340" y="30" width="20" height="20" as="geometry" />
        </mxCell>
        <mxCell id="QkP3R4wny_Kz9jWWcXJ1-54" value="" style="endArrow=none;html=1;rounded=0;exitX=1;exitY=0.5;exitDx=0;exitDy=0;entryX=0;entryY=0.5;entryDx=0;entryDy=0;" edge="1" parent="QkP3R4wny_Kz9jWWcXJ1-59" source="QkP3R4wny_Kz9jWWcXJ1-14" target="QkP3R4wny_Kz9jWWcXJ1-16">
          <mxGeometry width="50" height="50" relative="1" as="geometry">
            <mxPoint x="220" y="50" as="sourcePoint" />
            <mxPoint x="175" y="50" as="targetPoint" />
          </mxGeometry>
        </mxCell>
        <mxCell id="QkP3R4wny_Kz9jWWcXJ1-60" value="" style="endArrow=none;html=1;rounded=0;exitX=1;exitY=0.5;exitDx=0;exitDy=0;entryX=0;entryY=0.5;entryDx=0;entryDy=0;" edge="1" parent="QkP3R4wny_Kz9jWWcXJ1-59" source="QkP3R4wny_Kz9jWWcXJ1-14" target="QkP3R4wny_Kz9jWWcXJ1-16">
          <mxGeometry width="50" height="50" relative="1" as="geometry">
            <mxPoint x="350" y="310" as="sourcePoint" />
            <mxPoint x="400" y="260" as="targetPoint" />
          </mxGeometry>
        </mxCell>
        <mxCell id="QkP3R4wny_Kz9jWWcXJ1-66" value="" style="group" vertex="1" connectable="0" parent="QkP3R4wny_Kz9jWWcXJ1-59">
          <mxGeometry x="30" y="10" width="140" height="90" as="geometry" />
        </mxCell>
        <mxCell id="QkP3R4wny_Kz9jWWcXJ1-48" value="" style="group" vertex="1" connectable="0" parent="QkP3R4wny_Kz9jWWcXJ1-66">
          <mxGeometry width="140" height="60" as="geometry" />
        </mxCell>
        <mxCell id="QkP3R4wny_Kz9jWWcXJ1-6" value="Vehicle:D" style="rounded=0;whiteSpace=wrap;html=1;" vertex="1" parent="QkP3R4wny_Kz9jWWcXJ1-48">
          <mxGeometry x="10" width="120" height="60" as="geometry" />
        </mxCell>
        <mxCell id="QkP3R4wny_Kz9jWWcXJ1-15" value="" style="ellipse;whiteSpace=wrap;html=1;aspect=fixed;" vertex="1" parent="QkP3R4wny_Kz9jWWcXJ1-48">
          <mxGeometry x="120" y="20" width="20" height="20" as="geometry" />
        </mxCell>
        <mxCell id="QkP3R4wny_Kz9jWWcXJ1-22" value="" style="ellipse;whiteSpace=wrap;html=1;aspect=fixed;strokeColor=light-dark(#000000, #959595);fillColor=light-dark(#3b3535, #ededed);" vertex="1" parent="QkP3R4wny_Kz9jWWcXJ1-48">
          <mxGeometry y="20" width="20" height="20" as="geometry" />
        </mxCell>
        <mxCell id="QkP3R4wny_Kz9jWWcXJ1-65" value="next in A" style="text;html=1;align=center;verticalAlign=middle;whiteSpace=wrap;rounded=0;" vertex="1" parent="QkP3R4wny_Kz9jWWcXJ1-66">
          <mxGeometry x="25" y="60" width="100" height="30" as="geometry" />
        </mxCell>
        <mxCell id="QkP3R4wny_Kz9jWWcXJ1-69" value="next in T" style="text;html=1;align=center;verticalAlign=middle;whiteSpace=wrap;rounded=0;" vertex="1" parent="QkP3R4wny_Kz9jWWcXJ1-70">
          <mxGeometry x="125" y="120" width="100" height="30" as="geometry" />
        </mxCell>
        <mxCell id="QkP3R4wny_Kz9jWWcXJ1-68" value="" style="group" vertex="1" connectable="0" parent="1">
          <mxGeometry x="920" y="240" width="140" height="90" as="geometry" />
        </mxCell>
        <mxCell id="QkP3R4wny_Kz9jWWcXJ1-45" value="" style="group" vertex="1" connectable="0" parent="QkP3R4wny_Kz9jWWcXJ1-68">
          <mxGeometry width="140" height="60" as="geometry" />
        </mxCell>
        <mxCell id="QkP3R4wny_Kz9jWWcXJ1-3" value="Vehicle:F" style="rounded=0;whiteSpace=wrap;html=1;" vertex="1" parent="QkP3R4wny_Kz9jWWcXJ1-45">
          <mxGeometry x="10" width="120" height="60" as="geometry" />
        </mxCell>
        <mxCell id="QkP3R4wny_Kz9jWWcXJ1-13" value="" style="ellipse;whiteSpace=wrap;html=1;aspect=fixed;" vertex="1" parent="QkP3R4wny_Kz9jWWcXJ1-45">
          <mxGeometry y="20" width="20" height="20" as="geometry" />
        </mxCell>
        <mxCell id="QkP3R4wny_Kz9jWWcXJ1-26" value="" style="ellipse;whiteSpace=wrap;html=1;aspect=fixed;strokeColor=light-dark(#000000, #959595);fillColor=light-dark(#3b3535, #ededed);" vertex="1" parent="QkP3R4wny_Kz9jWWcXJ1-45">
          <mxGeometry x="120" y="20" width="20" height="20" as="geometry" />
        </mxCell>
        <mxCell id="QkP3R4wny_Kz9jWWcXJ1-67" value="next in T" style="text;html=1;align=center;verticalAlign=middle;whiteSpace=wrap;rounded=0;" vertex="1" parent="QkP3R4wny_Kz9jWWcXJ1-68">
          <mxGeometry x="20" y="60" width="100" height="30" as="geometry" />
        </mxCell>
        <mxCell id="QkP3R4wny_Kz9jWWcXJ1-25" value="" style="ellipse;whiteSpace=wrap;html=1;aspect=fixed;strokeColor=light-dark(#000000, #959595);fillColor=light-dark(#3b3535, #ededed);" vertex="1" parent="1">
          <mxGeometry x="530" y="260" width="20" height="20" as="geometry" />
        </mxCell>
        <mxCell id="QkP3R4wny_Kz9jWWcXJ1-71" value="" style="endArrow=none;html=1;rounded=0;exitX=1;exitY=0.5;exitDx=0;exitDy=0;entryX=0;entryY=0.5;entryDx=0;entryDy=0;" edge="1" parent="1" source="QkP3R4wny_Kz9jWWcXJ1-25" target="QkP3R4wny_Kz9jWWcXJ1-22">
          <mxGeometry width="50" height="50" relative="1" as="geometry">
            <mxPoint x="470" y="690" as="sourcePoint" />
            <mxPoint x="520" y="640" as="targetPoint" />
          </mxGeometry>
        </mxCell>
      </root>
    </mxGraphModel>
  </diagram>
</mxfile>
